<?xml version="1.0" encoding="UTF-8" standalone="no"?>
<svg
   version="1.2"
   viewBox="0 0 1816 376"
   width="1816"
   height="376"
   id="svg4"
   sodipodi:docname="BFMTV-LOGO_2025.svg"
   inkscape:version="1.3.2 (091e20e, 2023-11-25, custom)"
   xmlns:inkscape="http://www.inkscape.org/namespaces/inkscape"
   xmlns:sodipodi="http://sodipodi.sourceforge.net/DTD/sodipodi-0.dtd"
   xmlns="http://www.w3.org/2000/svg"
   xmlns:svg="http://www.w3.org/2000/svg">
  <defs
     id="defs4" />
  <sodipodi:namedview
     id="namedview4"
     pagecolor="#ffffff"
     bordercolor="#000000"
     borderopacity="0.25"
     inkscape:showpageshadow="2"
     inkscape:pageopacity="0.0"
     inkscape:pagecheckerboard="0"
     inkscape:deskcolor="#d1d1d1"
     inkscape:zoom="0.54240088"
     inkscape:cx="908"
     inkscape:cy="188.05279"
     inkscape:window-width="1920"
     inkscape:window-height="1018"
     inkscape:window-x="-8"
     inkscape:window-y="-8"
     inkscape:window-maximized="1"
     inkscape:current-layer="svg4" />
  <title
     id="title1">Objet dynamique vectoriel</title>
  <style
     id="style1">
		.s0 { fill: #ffffff } 
	</style>
  <g
     id="BFMTV">
    <g
       id="g4">
      <g
         id="g3">
        <g
           id="&lt;Group&gt;">
          <path
             id="&lt;Compound Path&gt;"
             fill-rule="evenodd"
             class="s0"
             d="m325.9 267.9c0 60.4-38 108.1-118 108.1h-207.9v-376.3h205.3c73.6 0 112.9 35.5 112.9 94.3 0 40.3-21.5 72.6-63.5 83.8 46.1 7.9 71.2 40.2 71.2 90.1zm-221.7-189.8v70h67.6c24.2 0 36.1-14.9 36.1-36.1 0-20.6-11.9-33.9-36.1-33.9zm111.5 179.7c0-23.3-14.6-37.6-39.7-37.6h-71.8v77.4h71.8c26.5-0.1 39.7-17 39.7-39.8z"
             style="fill:#00007c;fill-opacity:1" />
          <path
             id="&lt;Path&gt;"
             class="s0"
             d="m452.3 88.7v63.6h168.1v84.8h-168.1v138.8h-104.2v-376.2h272.4v89z"
             style="fill:#00007c;fill-opacity:1" />
          <path
             id="path1"
             class="s0"
             d="m921.1-0.3l-61 238.7-61-238.7h-151.3v376.3h95.5v-270.9l71.3 270.9h91l71.3-270.9v270.9h95.5v-376.3z"
             style="fill:#00007c;fill-opacity:1" />
        </g>
        <path
           id="path2"
           class="s0"
           d="m1632.7-0.3l-75.7 259.2-75.6-259.2h-381.7v93.8h104.7v282.5h104.2v-282.5h90.3l95.7 282.5h124.8l127.6-376.3z"
           style="fill:#00007c;fill-opacity:1" />
        <path
           id="path3"
           class="s0"
           d="m1711.6 271.7h104.2v104.2h-104.2z"
           style="fill:#00007c;fill-opacity:1" />
      </g>
    </g>
  </g>
</svg>
